<?xml version="1.0" standalone="no"?>
<!DOCTYPE svg PUBLIC "-//W3C//DTD SVG 20010904//EN"
 "http://www.w3.org/TR/2001/REC-SVG-20010904/DTD/svg10.dtd">
<svg version="1.0" xmlns="http://www.w3.org/2000/svg"
 width="500.000000pt" height="500.000000pt" viewBox="0 0 500.000000 500.000000"
 preserveAspectRatio="xMidYMid meet">
<metadata>
Created by potrace 1.11, written by Peter Selinger 2001-2013
</metadata>
<g transform="translate(0.000000,500.000000) scale(0.100000,-0.100000)"
fill="#000000" stroke="none">
<path d="M0 2500 l0 -2500 2500 0 2500 0 0 2500 0 2500 -2500 0 -2500 0 0
-2500z m3480 0 l0 -980 -980 0 -980 0 0 980 0 980 980 0 980 0 0 -980z"/>
<path d="M1580 2500 l0 -920 920 0 920 0 0 920 0 920 -920 0 -920 0 0 -920z
m1340 493 c36 -25 48 -43 57 -88 8 -38 11 -40 55 -47 62 -8 102 -33 127 -78
20 -36 21 -51 21 -360 0 -313 -1 -323 -22 -361 -29 -51 -85 -79 -162 -79 -82
0 -70 23 15 30 75 6 109 25 133 73 14 30 16 77 16 339 0 339 -2 352 -71 393
-33 19 -52 20 -589 20 -629 0 -604 3 -641 -78 -16 -37 -19 -67 -19 -254 0
-135 -4 -213 -10 -213 -6 0 -10 83 -10 229 0 220 1 229 23 261 32 48 67 70
122 78 48 7 50 8 58 49 5 29 19 51 43 72 l35 31 397 0 c358 0 400 -2 422 -17z
m-746 -223 c25 -9 26 -14 26 -80 0 -66 -1 -71 -26 -80 -14 -6 -68 -10 -120
-10 -82 0 -97 3 -115 21 -14 14 -19 30 -17 55 4 47 22 43 26 -6 l3 -41 112 3
112 3 0 55 0 55 -100 3 c-113 3 -138 8 -115 22 20 13 182 13 214 0z m513 -42
c187 -69 263 -331 143 -496 -43 -60 -55 -52 -15 9 113 167 50 388 -133 472
-70 32 -179 30 -252 -4 -247 -117 -247 -462 0 -573 55 -25 71 -28 143 -24 45
3 90 8 100 12 10 5 17 4 17 -2 0 -18 -89 -35 -158 -30 -122 9 -219 77 -273
192 -73 155 -10 348 140 430 89 48 184 52 288 14z m-26 -95 c171 -87 178 -322
11 -415 -116 -66 -262 -22 -325 96 -41 78 -22 216 37 265 21 18 20 5 -2 -27
-119 -170 38 -396 236 -341 66 18 134 88 151 153 26 106 -18 205 -113 251 -51
25 -64 27 -129 22 -66 -5 -70 -4 -42 9 50 22 115 17 176 -13z m-818 -477 c3
-30 13 -68 21 -85 32 -61 29 -61 533 -61 419 0 522 -6 472 -25 -8 -3 -225 -4
-481 -3 -455 3 -467 3 -495 24 -51 38 -73 81 -73 145 0 74 15 77 23 5z"/>
<path d="M2093 2970 c-32 -19 -48 -52 -41 -87 3 -17 26 -18 444 -21 346 -2
444 1 451 10 17 23 -5 77 -40 98 -30 19 -52 20 -407 20 -355 0 -377 -1 -407
-20z m492 -45 c0 -6 -78 -11 -207 -13 -182 -2 -208 0 -208 13 0 13 26 15 208
13 129 -2 207 -7 207 -13z m230 0 c0 -11 -129 -20 -152 -11 -8 3 -11 11 -8 16
9 14 160 9 160 -5z"/>
</g>
</svg>
